<?xml version="1.0" standalone="no"?>
<!DOCTYPE svg PUBLIC "-//W3C//DTD SVG 20010904//EN"
 "http://www.w3.org/TR/2001/REC-SVG-20010904/DTD/svg10.dtd">
<svg version="1.0" xmlns="http://www.w3.org/2000/svg"
 width="280.000000pt" height="280.000000pt" viewBox="0 0 280.000000 280.000000"
 preserveAspectRatio="xMidYMid meet">
<metadata>
Created by potrace 1.14, written by Peter Selinger 2001-2017
</metadata>
<g transform="translate(0.000000,280.000000) scale(0.100000,-0.100000)"
fill="#000000" stroke="none">
<path d="M316 2208 c5 -8 2 -9 -9 -5 -10 3 -17 2 -17 -2 0 -5 6 -12 13 -14 9
-4 9 -6 -1 -6 -7 -1 -10 -5 -7 -11 3 -6 -1 -7 -9 -4 -11 4 -16 0 -16 -14 0
-12 -4 -24 -10 -27 -6 -3 -7 1 -4 12 3 10 -1 7 -9 -7 -9 -14 -13 -29 -9 -34 3
-5 -2 -7 -12 -3 -11 4 -15 3 -11 -4 4 -6 -1 -17 -11 -25 -11 -9 -13 -13 -4 -9
10 4 9 2 -2 -8 -10 -8 -14 -18 -10 -22 4 -5 0 -6 -9 -3 -9 4 -16 1 -16 -8 0
-7 5 -11 11 -8 6 3 3 -1 -6 -9 -10 -8 -18 -19 -18 -26 0 -6 -5 -10 -12 -8 -7
1 -13 -5 -13 -13 0 -8 -7 -14 -15 -12 -11 3 -11 0 0 -15 8 -10 11 -15 6 -11
-4 4 -21 -7 -37 -23 -30 -31 -38 -45 -17 -33 9 5 9 3 -1 -9 -7 -9 -17 -14 -22
-11 -5 3 -6 -1 -4 -9 3 -7 -3 -24 -15 -37 -22 -26 -26 -35 -9 -24 8 4 8 0 0
-15 -9 -16 -9 -21 1 -21 10 0 10 -2 0 -9 -11 -6 -10 -10 3 -15 15 -5 15 -9 4
-23 -8 -9 -9 -14 -4 -11 6 4 17 -2 24 -14 10 -16 10 -19 -1 -12 -7 4 0 -5 15
-19 15 -15 26 -31 23 -36 -3 -5 1 -12 10 -15 8 -3 12 -10 9 -16 -3 -5 -1 -10
5 -10 6 0 8 -4 5 -10 -3 -5 1 -10 9 -10 14 0 28 -26 23 -43 -1 -5 6 -13 16
-19 15 -8 16 -12 5 -26 -10 -13 -10 -14 0 -8 14 9 45 -12 37 -24 -3 -5 3 -15
13 -22 9 -7 17 -23 16 -36 -1 -19 1 -20 14 -10 11 9 13 9 9 1 -4 -6 0 -18 8
-27 9 -9 11 -17 5 -21 -5 -3 -10 -12 -10 -18 0 -9 2 -9 8 0 5 8 13 9 22 3 13
-8 13 -10 1 -10 -11 0 -10 -4 4 -13 12 -9 15 -19 10 -28 -5 -8 -5 -11 0 -7 4
4 15 2 24 -5 14 -11 15 -10 1 7 -14 18 -14 19 9 7 19 -11 22 -11 16 0 -6 9 -3
11 9 6 11 -4 15 -3 11 4 -4 6 1 20 11 32 10 12 12 16 4 10 -28 -25 -27 -12 1
18 16 17 29 35 29 41 0 5 5 6 12 2 7 -4 8 -3 4 5 -4 6 1 19 11 29 11 9 12 13
3 7 -8 -5 -5 2 8 16 12 14 22 30 22 36 0 5 10 15 23 22 12 6 14 9 4 6 -21 -6
-16 7 16 43 11 12 17 22 13 22 -4 0 6 12 21 26 15 14 21 23 13 19 -9 -4 -7 0
4 9 11 9 15 20 10 28 -5 9 -2 8 11 -2 11 -9 16 -10 11 -2 -9 16 2 54 15 47 5
-4 10 -1 10 4 1 6 3 16 4 21 1 6 3 17 4 26 0 9 6 13 14 9 6 -4 3 1 -7 9 -11 9
-16 16 -10 16 5 0 9 11 9 25 0 14 -4 25 -9 25 -4 0 -5 7 -2 16 4 11 2 15 -8
11 -10 -4 -14 0 -11 14 3 12 -2 19 -12 19 -8 0 -17 9 -20 20 -3 11 -9 20 -14
20 -5 0 -9 5 -9 11 0 5 6 7 13 3 8 -5 8 -2 -2 9 -15 19 -26 23 -15 5 4 -7 3
-8 -4 -4 -7 4 -12 14 -12 22 0 8 -4 12 -10 9 -5 -3 -7 0 -4 8 3 8 0 18 -7 23
-8 5 -10 3 -4 -6 5 -9 4 -11 -4 -6 -6 4 -9 11 -6 16 3 5 -9 24 -27 41 -18 18
-26 29 -18 25 8 -4 4 2 -10 14 -14 12 -18 19 -10 15 8 -4 4 3 -10 15 -14 12
-20 19 -14 16 6 -3 11 1 11 9 0 8 -2 13 -5 10 -10 -10 -41 16 -36 30 4 9 0 15
-10 15 -10 0 -16 9 -16 23 0 18 -2 19 -10 7 -8 -13 -10 -12 -10 3 0 9 -5 17
-11 17 -5 0 -7 -5 -3 -12z m11 -160 c-6 -22 -6 -22 8 -4 15 20 15 20 15 0 0
-10 11 -27 24 -38 14 -10 23 -23 20 -29 -2 -7 8 -20 23 -30 19 -13 21 -17 8
-13 -14 5 -11 -1 12 -22 26 -23 30 -32 20 -42 -9 -10 -9 -11 1 -5 9 4 15 0 19
-15 4 -17 8 -19 15 -8 7 9 8 7 5 -10 -3 -12 -2 -20 3 -17 7 4 29 -17 45 -44 6
-10 4 -12 -6 -7 -8 4 -5 0 5 -8 11 -9 14 -16 7 -16 -7 0 -10 -4 -7 -9 7 -11
-23 -71 -35 -71 -6 0 -7 -4 -4 -10 3 -5 2 -10 -4 -10 -6 0 -8 -7 -5 -15 5 -11
2 -13 -12 -8 -12 5 -15 3 -9 -6 4 -8 2 -17 -6 -22 -8 -4 -14 -14 -14 -21 -1
-7 -7 -12 -15 -10 -11 3 -11 0 0 -12 10 -14 10 -16 -5 -16 -11 0 -15 -5 -12
-15 4 -8 1 -17 -5 -21 -7 -5 -8 -2 -3 6 6 9 4 11 -4 6 -7 -5 -10 -14 -7 -22 3
-8 -1 -14 -10 -14 -8 0 -14 -6 -12 -14 2 -7 -8 -23 -22 -36 -14 -12 -19 -18
-12 -15 11 6 11 3 1 -12 -6 -11 -18 -20 -25 -20 -9 0 -11 4 -4 12 7 8 3 11
-13 11 -16 -1 -21 4 -19 17 2 9 -2 17 -8 17 -5 0 -10 7 -10 15 0 8 -5 15 -11
15 -6 0 -8 7 -5 16 3 8 2 12 -4 9 -6 -3 -14 5 -20 19 -5 14 -12 26 -15 26 -4
0 -3 -5 1 -12 4 -7 3 -8 -5 -4 -6 4 -9 12 -5 17 3 5 0 16 -6 24 -6 8 -9 19 -5
24 3 7 0 8 -9 5 -11 -4 -16 0 -16 15 0 12 -4 21 -10 21 -5 0 -10 7 -10 15 0 8
-8 15 -17 16 -10 0 -13 3 -6 6 13 5 11 8 -25 48 -17 19 -15 35 6 52 9 8 12 12
6 9 -6 -3 -11 1 -11 8 0 8 6 12 14 9 9 -4 11 0 6 13 -5 13 -3 16 8 12 10 -4
15 1 16 16 1 11 14 31 28 43 25 22 35 40 13 27 -7 -4 -8 -3 -4 4 4 7 14 12 23
12 9 0 13 6 10 15 -4 8 -1 17 5 21 7 5 8 2 3 -6 -6 -9 -4 -11 4 -6 7 5 10 14
7 22 -3 7 0 16 6 20 7 5 8 2 4 -7 -4 -8 1 -3 12 11 11 13 18 29 15 34 -4 5 1
6 12 2 16 -6 16 -4 4 11 -9 11 -10 14 -1 9 7 -4 12 -1 12 9 0 9 5 13 10 10 6
-3 10 -1 10 4 0 6 3 11 6 11 4 0 4 -10 1 -22z"/>
<path d="M169 1853 c-13 -16 -12 -17 4 -4 9 7 17 15 17 17 0 8 -8 3 -21 -13z"/>
<path d="M780 1922 c0 -7 -4 -10 -10 -7 -5 3 -10 1 -10 -5 0 -6 -5 -8 -12 -4
-7 4 -8 3 -4 -5 4 -6 13 -9 19 -5 7 3 -1 -6 -18 -21 -16 -14 -23 -23 -15 -19
10 5 8 -1 -5 -16 -12 -14 -14 -20 -5 -15 9 5 7 -1 -5 -15 -11 -13 -14 -20 -7
-16 6 4 12 2 12 -3 0 -6 -4 -11 -9 -11 -5 0 -7 -9 -4 -20 3 -13 0 -20 -8 -20
-11 0 -11 -2 1 -10 13 -9 13 -10 0 -10 -13 0 -13 -2 -1 -9 11 -7 12 -13 3 -23
-7 -8 -7 -19 -2 -28 5 -9 5 -19 -2 -27 -7 -9 -7 -13 1 -13 7 0 8 -8 1 -25 -6
-16 -6 -25 0 -25 6 0 10 -9 10 -21 0 -11 -4 -17 -10 -14 -6 3 -7 -1 -4 -9 3
-9 10 -13 15 -10 5 3 5 -6 -1 -20 -6 -17 -6 -26 0 -26 6 0 10 -6 10 -14 0 -7
7 -27 15 -42 8 -16 15 -37 15 -46 0 -10 4 -18 10 -18 5 0 16 -15 24 -34 8 -19
22 -38 32 -44 11 -6 15 -17 11 -31 -3 -14 0 -24 8 -27 7 -3 12 -13 10 -22 -1
-9 3 -20 9 -24 8 -6 7 -8 -1 -8 -9 0 -10 -7 -3 -25 5 -14 6 -25 2 -25 -4 0 -8
-9 -8 -20 0 -11 5 -20 11 -20 5 0 3 -5 -5 -10 -8 -5 -11 -10 -6 -10 5 0 2 -8
-5 -17 -10 -11 -10 -14 -1 -9 6 4 12 2 12 -3 0 -6 -5 -11 -11 -11 -6 0 -8 -7
-5 -15 3 -9 -1 -18 -9 -21 -8 -4 -12 -11 -8 -17 4 -6 0 -8 -10 -4 -10 4 -14 2
-11 -6 8 -21 -36 -17 -49 4 -14 23 -43 25 -51 3 -3 -8 -2 -12 4 -9 15 9 12 -2
-6 -19 -9 -9 -11 -16 -4 -16 6 0 8 -4 5 -10 -3 -5 -1 -10 4 -10 6 0 11 -11 11
-25 0 -14 5 -25 11 -25 5 0 7 -5 3 -12 -4 -7 -3 -8 4 -4 6 4 21 2 33 -5 15 -8
19 -8 15 0 -4 6 -2 11 3 11 6 0 11 -5 11 -10 0 -7 6 -7 19 -1 10 6 21 8 24 5
3 -3 4 3 3 13 0 11 5 17 14 15 12 -3 12 -1 3 9 -10 10 -9 15 5 26 11 9 11 12
2 7 -12 -6 -12 -4 1 12 9 10 14 25 12 32 -3 6 1 12 7 12 10 0 10 3 1 14 -9 10
-9 16 -1 21 6 4 9 13 6 21 -3 7 -2 16 3 18 4 3 7 15 5 28 -1 13 -3 31 -3 41
-1 11 -6 15 -13 11 -7 -4 -8 -3 -4 5 6 9 12 9 24 -1 14 -11 14 -8 -2 16 -10
16 -13 25 -7 22 15 -10 14 7 -1 23 -10 11 -10 13 0 7 6 -4 12 -3 12 3 0 5 -6
12 -12 14 -10 4 -10 6 0 6 9 1 10 7 4 19 -4 9 -7 27 -6 40 0 12 -4 22 -10 22
-6 0 -4 5 4 10 8 5 10 10 5 10 -6 0 -16 9 -23 21 -8 12 -9 18 -3 14 14 -8 14
-2 0 29 -7 14 -16 23 -20 20 -5 -3 -9 2 -9 10 0 9 -4 16 -10 16 -5 0 -10 7
-10 16 0 9 -10 25 -22 36 -13 11 -17 17 -10 13 6 -3 12 -1 12 4 0 6 -7 11 -15
11 -9 0 -12 6 -9 15 4 8 1 15 -5 15 -7 0 -9 9 -5 25 3 14 2 25 -4 25 -10 0 -7
126 4 170 3 14 7 32 7 41 1 11 9 16 24 14 13 -1 23 2 23 8 0 6 7 2 16 -9 8
-10 12 -13 8 -5 -5 10 -3 12 5 7 7 -5 10 -13 8 -20 -3 -6 3 -12 13 -12 10 0
16 4 14 8 -3 4 1 8 8 8 9 0 9 3 -2 10 -14 9 -7 14 13 11 7 -1 4 7 -28 68 -12
22 -13 31 -5 26 9 -5 11 -4 6 3 -4 7 -16 12 -27 12 -10 0 -19 6 -19 13 0 8 -4
7 -10 -3 -9 -13 -11 -13 -20 0 -7 11 -10 11 -10 2z"/>
<path d="M941 1922 c-1 -7 -5 -10 -11 -7 -10 6 -11 5 -15 -34 -1 -13 -9 -27
-16 -32 -12 -7 -12 -10 0 -21 10 -10 12 -10 7 0 -4 6 -5 12 -2 12 3 0 12 -12
20 -27 8 -16 15 -23 16 -18 0 16 40 16 47 -1 3 -7 10 -11 16 -7 5 3 7 1 3 -5
-3 -6 -2 -13 4 -17 6 -4 7 -12 3 -18 -4 -7 -8 -19 -8 -27 0 -8 -4 -21 -9 -28
-4 -8 -2 -20 6 -29 16 -20 16 -16 -2 -38 -11 -14 -12 -17 -1 -11 9 6 12 5 9
-5 -3 -8 -1 -22 3 -31 6 -11 5 -19 -3 -24 -7 -4 -8 -3 -4 4 4 7 2 12 -3 12
-13 0 -14 -17 -2 -24 11 -7 9 -25 -3 -45 -6 -9 -5 -12 1 -8 6 4 13 -2 16 -13
3 -11 2 -18 -3 -15 -12 7 -22 -26 -11 -39 16 -19 16 -23 1 -41 -11 -14 -12
-17 -1 -11 9 6 12 5 9 -5 -3 -8 -1 -22 3 -31 6 -11 5 -19 -3 -24 -7 -4 -8 -3
-4 4 4 7 2 12 -3 12 -14 0 -14 -17 -1 -25 8 -5 7 -12 -2 -23 -11 -14 -10 -15
6 -9 14 6 16 4 9 -5 -6 -7 -9 -21 -8 -30 2 -10 -1 -21 -6 -24 -6 -3 -5 -11 2
-20 9 -11 8 -14 -2 -14 -9 -1 -8 -4 4 -11 12 -7 15 -15 9 -22 -5 -7 -8 -20 -7
-29 2 -10 -1 -18 -7 -18 -5 0 -2 -7 7 -16 12 -12 13 -19 4 -30 -6 -7 -8 -18
-4 -24 3 -5 0 -10 -7 -10 -8 0 -6 -5 5 -11 12 -7 15 -15 9 -22 -5 -7 -8 -20
-7 -29 2 -10 -1 -18 -7 -18 -5 0 -2 -7 7 -16 10 -10 12 -20 7 -28 -12 -14 -5
-58 11 -68 21 -14 28 -9 16 13 -9 17 -8 20 2 14 9 -6 11 -3 6 8 -3 9 -2 19 4
23 7 4 6 10 -1 19 -8 10 -7 14 2 18 9 4 9 6 1 6 -8 1 -9 10 -3 31 6 22 5 28
-2 24 -8 -5 -9 -1 -5 11 4 9 2 24 -4 31 -9 12 -9 13 4 8 16 -6 18 10 4 33 -4
6 -1 14 5 16 9 4 9 6 1 6 -8 1 -9 10 -3 31 6 22 5 28 -2 24 -8 -5 -9 -1 -5 11
4 9 2 24 -4 31 -10 12 -9 13 5 8 9 -3 16 -1 16 5 0 6 -8 11 -17 12 -11 0 -13
3 -5 6 6 2 12 9 12 14 0 6 -6 7 -12 4 -7 -4 -5 0 5 8 15 13 15 16 2 27 -8 7
-11 17 -7 24 10 15 12 96 3 96 -4 0 -8 7 -8 15 0 9 4 11 11 6 13 -11 14 38 2
57 -4 7 -2 12 5 12 7 0 4 7 -7 16 -10 8 -13 13 -6 9 7 -4 12 0 12 10 0 10 -5
14 -12 10 -7 -4 -4 1 6 9 11 9 15 16 10 16 -6 0 -9 18 -7 40 2 22 -1 40 -5 40
-5 0 -9 7 -9 15 0 9 4 11 11 6 7 -6 11 -1 11 15 0 14 -6 24 -15 25 -10 0 -11
2 -2 6 6 2 12 9 12 14 0 6 -6 7 -12 4 -7 -4 -6 -1 2 7 16 14 24 52 9 42 -5 -3
-9 0 -9 5 0 6 5 11 11 11 5 0 8 4 5 9 -8 13 25 24 37 12 11 -11 39 -3 31 10
-3 5 2 6 10 3 9 -3 16 -1 16 5 0 6 -6 11 -12 11 -8 0 -9 3 -3 8 15 10 19 46 5
37 -9 -5 -10 -1 -6 13 5 15 1 24 -14 32 -13 7 -20 7 -20 0 0 -5 -5 -10 -11
-10 -5 0 -8 4 -5 8 2 4 -4 8 -14 8 -10 0 -16 -4 -14 -8 3 -4 -6 -4 -20 2 -24
9 -30 6 -27 -12 0 -4 -6 -5 -14 -2 -8 4 -12 11 -9 16 4 6 -2 5 -14 -1 -15 -8
-22 -8 -25 2 -4 9 -6 9 -6 -1z"/>
<path d="M1580 1920 c0 -5 -10 -10 -22 -12 -15 -2 -22 -9 -22 -20 1 -10 -2
-15 -7 -12 -5 3 -12 -2 -15 -10 -3 -9 -10 -14 -14 -11 -5 3 -7 -2 -6 -12 2 -9
-4 -30 -13 -47 -8 -17 -14 -39 -13 -48 2 -10 -2 -18 -7 -18 -6 0 -11 -5 -11
-11 0 -5 4 -8 9 -5 4 3 6 -6 3 -19 -2 -14 -9 -25 -14 -25 -6 0 -5 -7 2 -15 10
-12 10 -15 0 -15 -10 0 -10 -3 0 -15 10 -12 10 -15 0 -15 -10 0 -10 -3 -1 -14
8 -10 9 -16 1 -21 -6 -3 -8 -10 -5 -15 3 -5 0 -12 -6 -16 -8 -4 -7 -9 2 -15
12 -7 12 -9 0 -9 -11 0 -11 -3 -1 -15 7 -9 8 -15 2 -15 -6 0 -9 -8 -7 -17 2
-10 4 -18 5 -18 1 0 3 -8 5 -17 2 -10 -4 -22 -13 -28 -10 -5 -12 -10 -5 -10 7
0 10 -10 7 -26 -3 -15 -1 -23 5 -20 11 7 9 -13 -4 -33 -5 -10 -4 -16 4 -19 8
-3 6 -8 -6 -18 -10 -8 -13 -14 -8 -13 23 3 27 -2 14 -18 -11 -13 -11 -17 -1
-20 6 -3 12 -9 12 -14 0 -6 -4 -8 -8 -5 -5 3 -9 -1 -9 -9 0 -8 5 -11 11 -8 6
4 5 -1 -3 -10 -7 -9 -9 -17 -4 -17 5 0 9 -9 10 -20 1 -12 -3 -18 -9 -14 -7 4
-6 0 1 -14 6 -11 12 -43 14 -72 2 -30 10 -56 18 -61 9 -5 9 -9 2 -9 -13 0 -12
-25 2 -37 4 -4 5 -2 0 6 -5 10 -4 12 3 7 9 -5 9 -13 1 -28 -8 -15 -8 -19 0
-14 6 4 12 2 12 -3 1 -6 2 -16 3 -21 0 -6 6 -14 12 -18 6 -4 10 -15 8 -25 -2
-15 0 -16 14 -5 14 11 15 10 9 -6 -6 -14 -4 -17 10 -12 9 4 20 1 25 -6 7 -10
11 -10 14 -1 3 7 12 9 20 6 8 -3 14 0 14 6 0 6 5 11 11 11 5 0 7 -5 3 -12 -4
-7 -3 -8 5 -4 6 4 9 11 6 16 -3 5 0 12 6 15 5 4 8 13 6 19 -3 7 -1 19 3 27 5
8 4 19 -2 26 -5 7 -8 19 -5 26 3 8 -3 13 -17 13 -13 0 -23 -6 -23 -13 0 -10 4
-10 16 -1 13 10 14 10 4 -2 -7 -7 -28 -14 -48 -16 -32 -2 -34 0 -23 14 11 13
11 14 -1 7 -11 -6 -13 -4 -8 8 4 12 1 15 -14 12 -11 -2 -17 0 -14 5 3 5 1 12
-5 15 -8 5 -7 12 2 23 10 12 10 14 1 8 -12 -7 -18 16 -14 52 1 6 -2 12 -7 12
-5 0 -8 12 -8 28 1 15 -3 33 -8 40 -5 7 -4 12 3 12 7 0 8 8 1 26 -12 31 -12
37 -1 30 5 -4 7 3 4 14 -3 11 -10 17 -17 13 -7 -4 -7 -1 1 8 10 12 10 18 1 27
-8 8 -9 12 -1 12 12 0 12 25 0 36 -3 4 -2 16 4 27 6 10 7 17 2 14 -5 -4 -10 0
-10 8 0 8 4 12 9 9 4 -3 8 0 8 5 0 6 -5 11 -11 11 -8 0 -8 5 1 15 7 8 9 15 5
15 -4 0 -1 8 6 17 8 10 9 14 2 10 -6 -4 -14 -3 -18 3 -3 5 -1 10 4 10 15 0 14
27 -1 34 -9 3 -7 9 6 20 15 12 16 16 5 16 -12 0 -12 2 1 10 13 9 13 10 0 10
-11 1 -10 4 4 15 11 8 15 15 10 15 -6 0 -11 7 -11 15 0 8 4 15 9 15 11 0 6 23
-7 32 -6 5 -5 8 3 8 7 0 10 5 7 10 -3 6 1 10 10 10 12 0 13 4 6 18 -6 12 -5
23 5 36 7 10 10 24 7 30 -4 6 1 5 10 -3 15 -12 17 -12 11 3 -3 9 -1 16 6 16 6
0 9 4 6 8 -2 4 6 8 20 8 16 0 23 -5 20 -13 -3 -7 0 -15 6 -19 7 -4 8 -3 4 4
-4 7 -2 12 3 12 10 0 15 -14 12 -33 -1 -4 8 -2 18 5 16 10 18 15 8 27 -7 9 -8
12 -1 8 7 -4 11 7 11 33 0 22 -4 37 -8 34 -4 -2 -9 5 -11 17 -3 20 -68 58 -68
39z"/>
<path d="M1726 1913 c3 -13 1 -23 -5 -23 -6 0 -7 -7 -4 -17 5 -12 3 -14 -8 -8
-12 8 -12 6 0 -8 7 -9 10 -17 5 -17 -5 0 -2 -5 6 -10 8 -5 10 -10 3 -10 -6 0
-10 -8 -8 -17 1 -10 -2 -24 -8 -31 -7 -9 -5 -11 9 -5 16 6 17 4 7 -8 -10 -12
-10 -18 0 -29 9 -10 9 -11 0 -6 -8 4 -13 2 -13 -6 0 -8 6 -20 13 -27 10 -11
10 -13 0 -7 -16 9 -17 -10 -3 -19 8 -5 8 -11 1 -19 -7 -9 -7 -17 2 -26 9 -10
9 -11 0 -6 -8 4 -13 1 -13 -8 0 -9 6 -16 13 -16 9 0 9 -2 -1 -9 -17 -11 -17
-21 0 -32 8 -5 8 -9 2 -9 -14 0 -13 -42 1 -52 6 -5 5 -8 -4 -8 -11 0 -11 -3 0
-17 8 -9 9 -14 4 -11 -7 5 -11 -28 -11 -97 0 -69 4 -101 11 -97 5 3 4 -1 -2
-9 -10 -12 -10 -18 0 -29 9 -10 9 -11 -1 -5 -16 8 -13 -26 3 -37 6 -5 6 -8 -1
-8 -13 0 -12 -58 1 -80 5 -8 4 -11 -2 -7 -12 8 -11 -62 1 -82 6 -9 5 -12 -2
-7 -10 6 -11 -17 -2 -59 1 -5 1 -12 0 -15 -7 -17 -5 -60 3 -60 6 0 5 -5 -1
-13 -7 -8 -7 -18 -2 -27 6 -8 10 -10 10 -4 0 7 10 14 22 17 18 5 19 8 8 21 -8
11 -9 16 -1 16 6 0 11 5 11 11 0 5 -6 7 -12 3 -9 -5 -9 -2 1 9 11 14 11 17 0
17 -12 0 -12 2 0 9 9 6 10 10 2 16 -9 5 -9 10 0 21 9 11 8 14 -2 14 -12 0 -12
2 0 9 9 6 10 11 2 15 -15 10 -3 28 12 19 7 -3 3 3 -7 15 -12 14 -14 22 -7 22
7 0 9 5 4 13 -11 18 -12 36 -2 43 5 3 9 10 9 15 0 6 -6 7 -12 3 -9 -5 -9 -2 1
9 11 14 11 17 0 17 -12 0 -12 2 0 9 9 6 10 11 2 15 -8 5 -8 13 -1 26 7 13 7
21 0 25 -8 5 -7 11 0 20 7 8 9 18 6 23 -3 5 3 17 13 26 12 11 18 12 18 3 0 -7
3 -26 7 -42 5 -22 4 -26 -4 -15 -5 8 -10 10 -10 4 0 -6 6 -16 13 -22 16 -14
21 -66 5 -56 -7 4 -8 3 -4 -5 4 -6 11 -9 16 -6 4 3 10 -4 13 -15 3 -14 1 -18
-6 -13 -7 4 -4 -6 7 -21 10 -16 13 -25 7 -22 -6 4 -11 2 -11 -3 0 -6 4 -11 8
-11 7 0 13 -29 15 -77 1 -13 4 -23 7 -23 3 0 7 -14 8 -32 2 -18 8 -36 15 -40
9 -6 9 -8 0 -8 -7 0 -13 -5 -13 -11 0 -5 5 -7 10 -4 7 4 9 -3 5 -22 -5 -19 -4
-24 3 -15 7 11 10 11 15 -2 4 -9 11 -16 18 -16 6 0 8 7 5 16 -3 8 -2 12 4 9
14 -9 12 8 -2 24 -11 11 -10 12 1 6 11 -6 13 -4 6 11 -4 10 -7 27 -7 37 0 10
-4 15 -10 11 -6 -4 -9 -1 -6 7 3 8 1 22 -4 32 -6 11 -5 17 3 17 8 0 7 6 -4 18
-12 13 -13 22 -5 36 7 12 7 16 0 12 -5 -3 -12 3 -15 14 -3 11 -1 18 3 15 5 -3
12 -1 15 5 4 6 2 9 -3 8 -6 -2 -11 2 -12 7 -1 6 -7 16 -13 24 -10 12 -9 13 2
6 11 -6 12 -5 5 6 -10 17 -15 38 -15 62 0 9 -5 17 -10 17 -6 0 -5 9 2 21 9 17
8 20 -1 14 -10 -6 -12 -1 -8 18 3 15 1 24 -3 21 -5 -3 -9 -1 -9 5 0 5 6 12 13
14 6 3 3 6 -8 6 -17 1 -17 3 -5 11 9 6 10 10 3 10 -6 0 -10 9 -8 20 2 11 -1
22 -6 26 -6 3 -5 12 3 22 8 9 8 13 2 9 -7 -4 -15 0 -18 9 -3 8 -2 13 2 10 5
-3 10 10 11 29 3 64 5 74 15 68 5 -4 7 1 3 10 -3 10 -2 17 3 17 6 0 10 5 10
11 0 5 -5 7 -11 3 -6 -3 -4 7 4 22 7 16 20 55 27 86 8 37 17 55 24 51 6 -4 5
0 -2 9 -13 16 -6 52 8 43 5 -3 12 0 16 6 4 7 3 9 -3 6 -18 -11 -22 19 -7 42 8
12 13 25 10 30 -4 5 -1 11 5 13 8 3 6 9 -4 20 -9 8 -13 19 -9 23 4 4 -3 2 -15
-6 -12 -7 -20 -15 -18 -18 3 -2 0 -10 -6 -17 -6 -8 -9 -20 -6 -29 4 -8 -1 -19
-11 -24 -11 -7 -12 -11 -4 -11 8 0 10 -5 5 -12 -9 -16 -14 -37 -14 -60 0 -10
-4 -18 -9 -18 -5 0 -7 -9 -5 -20 2 -11 -1 -20 -7 -20 -6 0 -5 -7 3 -17 8 -9 9
-14 2 -10 -7 4 -15 -5 -22 -23 -6 -18 -6 -28 -1 -25 6 4 10 1 10 -5 0 -6 -7
-13 -15 -16 -8 -4 -12 -10 -9 -15 3 -5 11 -6 17 -3 7 4 0 -5 -15 -20 -29 -28
-39 -47 -13 -26 20 16 19 0 -1 -28 -8 -12 -12 -26 -9 -32 3 -6 -1 -7 -10 -4
-12 5 -13 9 -4 20 6 8 8 14 3 14 -11 0 -11 76 -1 86 4 4 1 14 -6 22 -9 13 -9
14 1 8 6 -4 12 -3 12 1 0 5 -6 15 -12 22 -11 11 -10 12 2 6 13 -8 13 -6 2 7
-10 13 -10 17 0 20 9 4 10 9 2 19 -12 16 -12 29 -1 47 5 7 3 12 -5 12 -10 0
-10 2 1 9 9 6 10 11 2 15 -8 5 -8 13 0 28 6 11 7 18 2 15 -5 -4 -10 0 -10 8 0
8 4 12 9 9 4 -3 8 0 8 5 0 6 -6 11 -12 11 -9 0 -8 4 2 10 12 8 12 10 1 10 -11
0 -11 3 0 17 10 11 10 14 2 9 -8 -4 -13 -1 -13 9 0 9 -4 14 -9 11 -5 -4 -12 0
-15 6 -3 7 -3 3 0 -9z"/>
<path d="M1267 1902 c-13 -15 -14 -21 -4 -32 10 -10 9 -11 -2 -5 -11 6 -13 1
-9 -24 3 -18 1 -34 -4 -37 -5 -3 -4 -12 3 -20 7 -9 8 -14 1 -14 -6 0 -9 -8 -7
-17 1 -10 -2 -24 -8 -30 -6 -9 -5 -13 4 -13 11 0 11 -2 -1 -10 -12 -8 -12 -10
-1 -10 10 0 11 -3 2 -14 -13 -15 -23 -99 -11 -91 4 2 5 -7 2 -20 -2 -14 -8
-28 -13 -31 -5 -3 -9 -10 -9 -15 0 -6 6 -7 13 -3 8 5 8 2 -2 -9 -11 -14 -11
-17 0 -17 8 0 6 -6 -7 -16 -10 -8 -14 -13 -8 -10 7 3 14 -1 17 -9 4 -10 1 -12
-11 -8 -15 6 -16 5 -2 -12 9 -11 10 -16 3 -11 -7 4 -13 2 -13 -3 0 -6 4 -11
10 -11 5 0 7 -7 4 -15 -4 -8 -11 -12 -18 -8 -6 3 -6 1 2 -8 14 -15 16 -33 3
-25 -12 8 -8 -27 4 -36 6 -5 6 -8 -1 -8 -6 0 -11 -12 -10 -27 1 -16 -6 -34
-14 -41 -8 -8 -9 -10 -2 -7 16 8 13 -46 -3 -57 -6 -5 -5 -8 4 -8 9 0 10 -4 5
-12 -11 -16 -11 -39 0 -57 6 -9 5 -12 -1 -8 -6 4 -14 0 -17 -9 -4 -10 -2 -13
6 -8 7 5 8 3 2 -7 -5 -8 -7 -22 -5 -33 2 -12 -1 -16 -10 -11 -8 6 -10 4 -3 -6
12 -19 14 -39 4 -39 -9 0 -8 -19 3 -37 4 -6 2 -15 -4 -19 -8 -5 -9 -3 -4 6 5
9 4 11 -4 6 -9 -6 -9 -11 0 -22 9 -11 8 -14 -2 -14 -11 0 -11 -2 1 -10 8 -5
10 -10 4 -10 -9 0 -10 -10 -5 -52 2 -13 36 -1 36 13 0 8 5 17 10 21 6 5 4 8
-4 8 -11 0 -12 3 -4 11 6 6 9 18 6 27 -5 11 -3 13 8 7 12 -8 12 -6 0 8 -11 14
-11 17 0 17 11 0 11 2 -1 10 -12 8 -12 10 5 10 19 1 19 1 2 11 -18 10 -18 11
0 26 10 8 13 12 7 9 -7 -3 -15 1 -18 10 -3 8 -2 12 4 9 6 -3 10 -2 10 4 0 5
-6 12 -12 14 -8 3 -5 6 6 6 15 1 16 4 6 16 -10 12 -9 16 5 21 17 7 17 8 -1 21
-11 8 -13 13 -5 13 7 0 11 6 8 14 -3 8 4 27 15 42 20 25 22 25 35 9 12 -18 14
-18 33 0 20 18 21 18 14 0 -5 -13 -4 -16 4 -11 7 4 12 2 12 -4 0 -6 4 -9 8 -6
5 3 9 -1 9 -9 0 -8 -5 -11 -10 -8 -6 4 -7 1 -2 -8 5 -7 9 -26 10 -42 1 -16 8
-33 16 -38 11 -7 11 -9 -3 -9 -19 0 -14 -28 6 -42 8 -6 8 -8 0 -8 -6 0 -11 -7
-11 -15 0 -8 5 -15 10 -15 5 0 4 -7 -3 -15 -12 -14 -7 -19 15 -16 6 1 1 -6 -9
-14 -12 -9 -15 -15 -7 -15 7 0 11 -6 8 -14 -3 -7 0 -19 6 -26 9 -10 9 -11 -3
-5 -13 8 -13 6 -2 -8 8 -9 11 -21 7 -26 -4 -7 1 -8 11 -4 13 5 15 3 9 -8 -5
-9 -1 -8 10 3 16 15 16 19 4 34 -8 11 -9 15 -2 11 9 -6 11 3 8 35 -2 23 -9 44
-15 46 -8 3 -7 8 1 18 9 11 8 14 -2 14 -11 0 -11 2 1 10 12 8 12 10 1 10 -11
0 -11 3 0 17 10 12 10 15 1 9 -9 -5 -12 0 -10 21 1 16 -1 34 -6 41 -4 7 -2 12
6 12 8 0 9 3 3 8 -12 8 -13 22 -2 39 6 9 3 11 -7 7 -19 -7 -21 7 -4 24 7 7 8
12 2 12 -6 0 -10 23 -10 51 1 28 -2 53 -7 56 -4 2 -4 9 -1 15 4 6 0 14 -7 19
-12 7 -12 9 0 9 11 0 11 3 0 17 -12 15 -12 16 1 8 12 -6 13 -5 3 6 -7 7 -13
17 -13 22 0 4 6 5 13 1 8 -6 8 -3 -2 9 -7 9 -11 24 -7 32 3 8 0 15 -7 15 -8 0
-6 4 3 10 8 5 10 10 3 10 -6 0 -9 9 -5 22 4 16 2 19 -9 13 -12 -8 -12 -6 0 8
9 11 10 17 2 17 -6 0 -11 5 -11 11 0 5 4 8 8 5 11 -7 8 31 -3 41 -4 5 -5 2 -1
-4 5 -9 2 -11 -10 -6 -15 5 -15 7 0 15 12 7 14 18 10 46 -3 20 -11 40 -16 43
-6 4 -5 9 3 12 12 4 11 7 -1 16 -13 10 -13 11 0 11 12 0 12 2 1 9 -9 6 -10 10
-2 16 9 5 9 10 0 21 -9 11 -8 14 2 14 12 0 12 2 0 9 -8 5 -11 16 -8 25 4 9 2
16 -3 16 -5 0 -7 7 -4 15 4 8 1 22 -5 29 -9 11 -9 15 0 18 8 3 7 8 -3 16 -12
10 -18 8 -31 -6z m24 -279 c7 -41 4 -60 -11 -56 -8 2 -6 -1 5 -8 29 -18 29
-17 15 -34 -10 -12 -10 -15 1 -15 11 0 11 -2 -1 -10 -8 -5 -10 -10 -4 -10 7 0
15 -7 18 -16 3 -8 2 -12 -4 -9 -6 3 -10 1 -10 -4 0 -6 6 -11 13 -11 8 0 7 -4
-3 -10 -13 -8 -12 -10 3 -10 10 0 15 -5 12 -10 -4 -6 -11 -8 -16 -5 -12 8 2
-28 15 -37 7 -5 7 -8 -1 -8 -7 0 -13 -4 -13 -10 0 -5 7 -10 16 -10 10 0 4 -10
-18 -30 -33 -30 -55 -40 -42 -18 5 8 2 9 -9 5 -17 -7 -21 1 -18 38 3 41 5 45
14 45 5 0 4 7 -3 15 -10 12 -10 15 1 16 10 0 10 2 2 5 -7 3 -9 12 -6 20 3 7
10 11 17 7 6 -4 5 1 -3 10 -11 14 -11 17 0 17 12 0 12 2 0 9 -9 6 -10 11 -2
15 6 4 11 12 11 17 0 6 -5 7 -12 3 -7 -5 -8 -3 -2 7 13 21 11 42 -5 61 -12 15
-11 17 8 13 22 -4 29 10 9 18 -8 3 -6 6 5 6 9 1 18 -2 18 -6z m29 -318 c-7 -8
-16 -15 -21 -15 -5 0 -1 8 9 18 20 22 31 19 12 -3z"/>
<path d="M1266 1588 c3 -5 10 -6 15 -3 13 9 11 12 -6 12 -8 0 -12 -4 -9 -9z"/>
<path d="M23 1539 c-6 -6 -9 -18 -6 -27 4 -9 2 -13 -4 -9 -13 8 -4 -43 11 -62
8 -11 8 -13 -1 -8 -15 10 -11 -13 8 -41 9 -12 19 -19 24 -14 4 4 5 -4 2 -16
-3 -13 -3 -21 0 -18 8 7 33 -20 33 -36 1 -18 26 -49 33 -41 4 3 7 3 7 -2 0 -4
-8 -14 -17 -21 -14 -10 -15 -12 -3 -12 32 2 50 -2 50 -13 0 -5 -5 -7 -11 -3
-8 5 -8 1 0 -13 6 -11 7 -24 3 -28 -4 -5 -1 -5 6 -1 7 4 9 12 6 18 -4 7 -2 8
5 4 6 -4 9 -12 6 -17 -4 -5 0 -9 7 -9 9 0 9 -3 -2 -10 -13 -8 -12 -10 3 -10
11 0 21 -9 24 -20 3 -11 10 -20 17 -20 6 0 4 -5 -4 -10 -12 -8 -12 -10 5 -10
17 0 17 -2 5 -10 -13 -8 -13 -10 1 -10 17 0 44 -46 40 -69 -1 -7 2 -10 8 -6 6
3 11 1 11 -5 0 -7 7 -9 17 -6 14 6 14 3 -3 -16 -13 -15 -14 -19 -2 -10 14 11
18 10 28 -5 10 -17 11 -16 6 2 -6 21 38 80 53 71 4 -3 8 4 8 15 1 13 -2 17
-10 12 -7 -4 -6 0 2 10 7 9 17 15 21 12 4 -3 11 2 14 11 4 10 2 13 -7 9 -6 -4
-4 0 6 8 9 8 17 20 17 26 0 7 4 10 9 6 5 -3 12 -1 16 5 3 5 0 10 -7 10 -8 1
-6 6 6 15 10 7 15 18 12 24 -4 5 -1 13 5 17 8 5 9 3 4 -6 -5 -9 -4 -11 4 -6 6
4 11 13 10 19 -4 33 1 40 19 26 9 -7 14 -9 10 -5 -4 5 -2 16 5 24 10 13 9 14
-3 7 -11 -6 -10 -3 3 12 9 11 14 23 10 28 -5 4 -3 5 3 2 7 -4 18 1 25 10 12
14 12 16 -1 9 -8 -4 -6 0 4 8 11 9 16 16 10 16 -5 0 0 7 10 15 11 8 17 15 13
15 -4 0 -2 10 5 23 7 12 11 25 10 30 -1 4 3 7 9 7 5 0 7 5 3 11 -3 6 0 15 7
20 10 6 11 9 2 9 -7 0 -13 9 -13 21 0 11 -4 17 -10 14 -5 -3 -10 1 -10 11 0
13 -3 14 -13 5 -8 -6 -18 -7 -22 -3 -5 4 -5 1 -1 -6 4 -7 12 -10 17 -7 5 4 4
-5 -2 -19 -7 -14 -16 -23 -20 -20 -5 3 -13 -6 -19 -20 -5 -14 -15 -26 -22 -26
-9 0 -8 -3 2 -10 13 -8 12 -10 -3 -10 -10 0 -15 -4 -12 -10 3 -5 2 -10 -4 -10
-6 0 -20 -22 -32 -50 -12 -27 -25 -50 -30 -50 -5 0 -9 -7 -9 -15 0 -10 -6 -12
-17 -8 -16 6 -17 5 -3 -12 9 -11 10 -16 3 -11 -7 4 -13 2 -13 -3 0 -23 -2 -26
-23 -38 -14 -8 -17 -12 -7 -13 10 0 4 -9 -15 -26 -16 -14 -24 -23 -17 -19 18
9 15 -3 -8 -27 -11 -12 -23 -18 -27 -15 -3 4 -1 7 5 7 7 0 12 5 12 11 0 6 -7
8 -16 5 -12 -4 -15 -2 -10 9 3 8 0 14 -6 12 -7 -1 -19 13 -28 31 -9 18 -20 29
-25 25 -4 -4 -5 -2 -1 5 5 8 -1 21 -15 33 -12 10 -17 19 -10 19 7 0 0 12 -14
26 -15 14 -24 32 -22 39 3 6 1 18 -5 26 -8 11 -9 10 -4 -3 3 -10 1 -18 -4 -18
-6 0 -10 9 -10 20 0 11 -5 20 -11 20 -6 0 -8 7 -5 16 5 12 2 15 -9 10 -9 -3
-13 -2 -10 3 3 5 0 13 -6 16 -5 4 -8 14 -5 22 3 8 2 12 -3 9 -5 -3 -14 0 -20
8 -9 11 -9 15 1 19 9 4 8 6 -3 6 -9 1 -22 12 -29 26 -7 14 -18 25 -24 25 -6 0
-4 5 4 10 8 5 10 10 5 10 -6 0 -16 -5 -22 -11z"/>
<path d="M509 1493 c-13 -17 -13 -17 6 -3 11 8 22 16 24 17 2 2 0 3 -6 3 -6 0
-17 -8 -24 -17z"/>
<path d="M23 1293 c-7 -2 -13 -9 -13 -15 0 -6 6 -6 15 2 8 6 20 8 26 4 8 -4 9
-3 5 4 -8 13 -13 14 -33 5z"/>
<path d="M590 1285 c9 -11 9 -15 1 -15 -7 0 -9 -5 -6 -11 4 -6 1 -9 -7 -7 -7
2 -15 -1 -17 -7 -1 -5 -8 -16 -14 -24 -10 -12 -9 -13 1 -7 11 7 12 4 3 -12 -6
-12 -17 -24 -24 -28 -7 -5 -6 0 3 12 14 18 14 18 -3 5 -12 -10 -14 -17 -7 -26
8 -9 3 -17 -15 -29 -15 -10 -23 -22 -19 -28 5 -8 1 -9 -11 -4 -16 6 -16 4 -4
-11 12 -15 12 -16 -4 -10 -10 4 -16 3 -13 -2 3 -5 -1 -14 -9 -21 -8 -7 -15
-23 -15 -37 0 -13 -4 -22 -8 -19 -5 3 -15 -11 -23 -30 -7 -20 -25 -42 -39 -49
-14 -8 -20 -14 -13 -15 12 0 12 -24 0 -37 -14 -14 -36 -11 -30 3 3 8 0 14 -6
12 -6 -2 -19 11 -29 27 -9 17 -20 33 -24 36 -5 3 -9 17 -10 32 -2 21 -5 24
-17 14 -10 -8 -13 -8 -8 -1 4 7 0 14 -8 18 -8 3 -12 12 -9 21 3 8 1 15 -5 15
-6 0 -11 7 -11 16 0 9 -5 12 -12 8 -8 -5 -8 -2 1 10 12 15 12 17 0 14 -8 -2
-13 2 -12 9 2 6 -7 15 -18 18 -17 6 -18 9 -7 23 7 10 8 14 4 10 -10 -9 -56 49
-56 69 0 7 -4 13 -10 13 -5 0 -10 6 -10 14 0 19 -29 29 -45 16 -17 -14 -25
-49 -14 -56 5 -3 7 -10 4 -15 -4 -5 -1 -9 6 -9 8 0 8 -4 -1 -16 -11 -12 -11
-15 0 -12 8 2 14 -3 15 -10 0 -7 7 -17 15 -22 8 -5 11 -10 7 -10 -4 0 1 -10
13 -22 11 -12 20 -27 20 -34 0 -6 7 -15 16 -18 15 -6 15 -8 -2 -29 -10 -12
-12 -17 -5 -10 17 14 42 6 35 -12 -3 -7 0 -16 7 -21 8 -5 10 -3 4 6 -5 9 -4
11 4 6 9 -6 9 -11 0 -22 -9 -12 -9 -13 3 -9 9 4 18 -1 22 -10 4 -11 2 -14 -7
-9 -8 5 -7 2 2 -9 7 -9 21 -17 30 -17 9 0 12 -3 6 -8 -12 -9 -18 -32 -8 -31 5
1 15 1 23 0 11 -1 11 -4 2 -13 -7 -7 -12 -17 -12 -22 0 -6 4 -5 9 2 6 10 11 9
22 -4 12 -16 12 -17 -1 -10 -8 4 -5 -1 6 -11 12 -10 27 -33 35 -50 8 -18 19
-33 26 -33 7 0 10 -6 7 -13 -3 -8 2 -14 10 -14 8 0 13 8 11 18 -2 12 1 16 10
13 7 -3 16 0 21 7 4 8 3 10 -4 5 -7 -4 -12 -2 -12 3 0 6 7 11 15 11 8 0 15 5
15 11 0 5 -6 7 -12 3 -9 -5 -9 -3 1 9 7 9 17 14 22 11 5 -3 6 3 2 12 -4 12 -3
15 5 10 8 -5 12 0 12 13 0 11 5 23 12 27 7 5 8 3 3 -6 -5 -9 -4 -11 4 -6 9 6
9 11 0 22 -10 12 -10 15 2 12 8 -2 13 3 11 11 -2 9 3 11 14 7 15 -6 15 -4 3
11 -12 15 -12 16 3 10 13 -4 15 -2 11 10 -5 12 -3 14 8 8 12 -7 12 -6 1 7 -13
17 -1 35 16 24 5 -3 9 0 10 7 2 28 8 42 17 42 6 0 9 -4 7 -8 -1 -5 2 -6 7 -2
6 3 7 13 4 22 -4 9 1 21 12 29 11 8 13 14 6 14 -7 0 -9 5 -6 11 4 6 13 8 21 5
8 -3 11 0 7 10 -3 8 3 22 14 32 10 9 14 15 8 12 -6 -3 -2 3 8 13 13 12 15 17
6 17 -11 1 -10 3 1 10 9 5 15 20 14 37 -1 15 -3 36 -3 46 -1 10 -5 15 -11 12
-5 -3 -10 -2 -10 3 0 6 -7 13 -16 16 -14 5 -15 4 -4 -9z"/>
<path d="M27 1043 c6 -16 5 -17 -13 -3 -18 14 -18 13 1 -9 11 -14 15 -21 9
-18 -15 9 -25 -28 -11 -42 9 -9 13 -21 19 -68 1 -7 5 -10 10 -7 4 3 8 0 8 -6
0 -6 11 -23 25 -38 14 -15 24 -31 22 -37 -2 -5 2 -16 10 -23 7 -8 11 -18 7
-23 -3 -5 0 -8 8 -7 8 2 12 -4 10 -16 -2 -10 1 -15 7 -12 10 6 37 -32 33 -46
-1 -5 3 -8 8 -8 6 0 10 -5 10 -11 0 -5 -6 -7 -12 -3 -8 4 -10 3 -5 -2 5 -5 14
-9 20 -9 7 0 13 -10 15 -23 2 -12 8 -20 13 -17 5 4 9 -2 9 -12 0 -10 9 -25 20
-33 15 -11 17 -17 7 -29 -10 -12 -9 -14 5 -8 13 5 19 0 24 -19 4 -16 12 -23
20 -20 20 8 45 -4 37 -17 -3 -6 -1 -7 5 -3 6 3 9 15 7 26 -2 13 2 20 11 20 8
0 12 5 9 10 -3 6 -1 10 5 10 6 0 9 4 5 9 -3 6 0 13 7 18 20 12 39 53 32 65 -4
7 -3 8 4 4 7 -4 12 -2 12 4 0 6 4 9 9 5 6 -3 8 4 6 16 -3 15 0 19 10 15 10 -3
12 0 8 11 -5 12 -3 14 7 8 10 -6 12 -4 7 8 -3 9 0 18 9 21 8 3 14 14 14 25 0
11 9 26 20 34 11 8 17 17 13 20 -3 4 0 7 7 7 7 0 10 3 7 7 -4 3 1 12 11 20 10
9 11 12 2 7 -11 -6 -10 -2 3 13 9 11 14 23 10 27 -5 4 -3 6 2 4 6 -1 11 1 12
6 1 5 7 12 13 16 7 4 13 19 13 34 1 14 4 26 7 26 3 0 5 15 5 34 0 22 -4 32
-12 29 -7 -3 -13 0 -13 6 0 6 -5 11 -11 11 -6 0 -8 -7 -5 -16 4 -12 2 -15 -9
-10 -8 3 -15 1 -15 -4 0 -6 5 -10 11 -10 5 0 7 -5 4 -11 -4 -6 -9 -8 -12 -5
-3 3 -16 -17 -30 -44 -13 -27 -30 -48 -36 -47 -7 1 -11 -6 -9 -17 3 -14 -1
-17 -13 -12 -9 3 -13 2 -10 -4 8 -13 -14 -52 -25 -45 -6 3 -7 -1 -4 -9 3 -9 1
-16 -6 -16 -6 0 -8 -4 -5 -10 3 -5 1 -10 -5 -10 -6 0 -8 -5 -4 -12 5 -8 2 -9
-11 -4 -15 5 -16 4 -5 -9 10 -12 10 -15 -3 -15 -9 0 -19 -5 -23 -12 -4 -7 -3
-8 4 -4 25 15 12 -7 -29 -53 -8 -9 -13 -23 -11 -31 3 -9 -1 -11 -12 -7 -10 4
-15 3 -11 -3 3 -6 1 -10 -4 -10 -6 0 -11 7 -11 16 0 8 -4 12 -10 9 -5 -3 -7 0
-5 7 3 8 -2 22 -11 33 -8 11 -12 14 -8 6 5 -10 3 -12 -5 -6 -7 4 -11 17 -9 30
4 18 1 22 -16 19 -12 -3 -15 -1 -8 2 9 4 7 11 -9 25 -13 11 -19 25 -15 34 3 9
2 14 -3 11 -4 -3 -17 4 -27 16 -11 12 -14 18 -7 15 6 -4 15 -3 18 3 4 6 3 10
-2 9 -21 -4 -47 2 -38 9 12 9 18 32 7 31 -27 -5 -34 1 -21 18 8 10 9 14 2 10
-6 -4 -14 -3 -18 3 -3 5 0 10 7 11 7 0 5 4 -5 8 -10 4 -19 11 -20 16 -1 6 -11
21 -22 33 -11 13 -20 31 -20 40 0 10 -5 17 -10 17 -6 0 -16 4 -22 8 -9 6 -11
3 -6 -10z"/>
<path d="M356 991 c-14 -15 -15 -21 -4 -27 7 -4 10 -3 5 1 -4 5 0 17 10 27 9
10 14 18 11 18 -3 0 -13 -9 -22 -19z"/>
<path d="M535 980 c-3 -5 -1 -10 4 -10 6 0 11 5 11 10 0 6 -2 10 -4 10 -3 0
-8 -4 -11 -10z"/>
<path d="M520 940 c-6 -11 -8 -20 -6 -20 3 0 10 9 16 20 6 11 8 20 6 20 -3 0
-10 -9 -16 -20z"/>
<path d="M310 474 c0 -8 5 -12 10 -9 6 3 10 10 10 16 0 5 -4 9 -10 9 -5 0 -10
-7 -10 -16z"/>
</g>
</svg>
